<?xml version="1.0" standalone="no"?>
<!DOCTYPE svg PUBLIC "-//W3C//DTD SVG 20010904//EN"
 "http://www.w3.org/TR/2001/REC-SVG-20010904/DTD/svg10.dtd">
<svg version="1.0" xmlns="http://www.w3.org/2000/svg"
 width="48.000000pt" height="48.000000pt" viewBox="0 0 48.000000 48.000000"
 preserveAspectRatio="xMidYMid meet">

<g transform="translate(0.000000,48.000000) scale(0.100000,-0.100000)"
fill="#000000" stroke="none">
<path d="M151 424 c-68 -34 -103 -85 -109 -160 -3 -32 1 -73 8 -94 10 -32 10
-48 0 -85 -7 -25 -11 -48 -8 -50 2 -2 25 2 50 10 40 12 53 12 95 -1 95 -30
197 16 245 109 16 32 19 54 16 103 -5 82 -38 132 -109 168 -68 34 -120 34
-188 0z m200 -44 c33 -24 69 -95 69 -136 -1 -42 -32 -106 -69 -137 -37 -31
-88 -43 -139 -32 -20 5 -56 9 -79 9 l-42 1 1 40 c0 22 -5 58 -12 80 -17 54 0
114 45 159 57 57 158 64 226 16z"/>
<path d="M149 316 c-16 -35 -5 -68 40 -114 65 -66 161 -80 161 -22 0 23 -45
39 -63 21 -16 -16 -23 -14 -62 20 -28 25 -33 34 -24 45 9 11 8 21 -1 44 -15
36 -36 39 -51 6z"/>
</g>
</svg>
